<svg fill="none" height="19" viewBox="0 0 20 19" width="20" xmlns="http://www.w3.org/2000/svg"><g fill="#fff"><path d="m8.29048 18.4375c.96492 0 1.74712-.7835 1.74712-1.75s-.7822-1.75-1.74712-1.75-1.74715.7835-1.74715 1.75.78223 1.75 1.74715 1.75z"/><path d="m15.2788 18.4375c.9649 0 1.7471-.7835 1.7471-1.75s-.7822-1.75-1.7471-1.75c-.965 0-1.7472.7835-1.7472 1.75s.7822 1.75 1.7472 1.75z"/><path d="m19.2202 3.48084c-.1106-.133-.2749-.21-.4473-.21h-13.68825l-.50667-1.9005c-.06756-.25551-.29818-.43284-.56258-.43284h-2.7139c-.321477 0-.582384.26133-.582384.58334 0 .322.260907.58333.582384.58333h2.26663l2.9946 11.23393c.06756.2555.29818.4328.56259.4328h9.31808c.3215 0 .5824-.2613.5824-.5833s-.2609-.5834-.5824-.5834h-8.87082l-.32729-1.2273 10.39201-.5239c.2691-.014.495-.2111.5439-.4771l1.1648-6.41672c.0315-.1715-.0151-.3465-.1258-.47834zm-5.1063 4.45669h-3.4943c-.3215 0-.5824-.26134-.5824-.58334s.2609-.58333.5824-.58333h3.4943c.3215 0 .5824.26133.5824.58333s-.2609.58334-.5824.58334z"/></g></svg>